HIERARCHY
ROOT Hips
{
	OFFSET 0.000000 0.000000 0.000000
	CHANNELS 6 Xposition Yposition Zposition Xrotation Yrotation Zrotation
	JOINT LeftUpLeg_virtual
	{
		OFFSET 0.000000 0.000000 0.000000
		CHANNELS 3 Xrotation Yrotation Zrotation
		JOINT LeftUpLeg
		{
			OFFSET 13.026900 -6.336304 -1.092800
			CHANNELS 3 Xrotation Yrotation Zrotation
			JOINT LeftLeg
			{
				OFFSET 0.524474 -46.096886 9.782700
				CHANNELS 3 Xrotation Yrotation Zrotation
				JOINT LeftFoot
				{
					OFFSET -0.524474 -53.427422 -12.948200
					CHANNELS 3 Xrotation Yrotation Zrotation
					JOINT LeftToeBase
					{
						OFFSET 0.192200 -14.009700 16.364100
						CHANNELS 3 Xrotation Yrotation Zrotation
						JOINT LeftToe_End
						{
							OFFSET -1.784700 -0.561700 9.474800
							CHANNELS 3 Xrotation Yrotation Zrotation
							End Site
							{
								OFFSET 0 0 0
							}
						}
					}
				}
			}
		}
	}
	JOINT RightUpLeg_virtual
	{
		OFFSET 0.000000 0.000000 0.000000
		CHANNELS 3 Xrotation Yrotation Zrotation
		JOINT RightUpLeg
		{
			OFFSET -12.883000 -6.336304 -1.092800
			CHANNELS 3 Xrotation Yrotation Zrotation
			JOINT RightLeg
			{
				OFFSET -0.524587 -46.096825 9.782800
				CHANNELS 3 Xrotation Yrotation Zrotation
				JOINT RightFoot
				{
					OFFSET 0.524587 -53.427383 -12.948300
					CHANNELS 3 Xrotation Yrotation Zrotation
					JOINT RightToeBase
					{
						OFFSET -0.192200 -14.009700 16.364100
						CHANNELS 3 Xrotation Yrotation Zrotation
						JOINT RightToe_End
						{
							OFFSET 1.784700 -0.561700 9.474800
							CHANNELS 3 Xrotation Yrotation Zrotation
							End Site
							{
								OFFSET 0 0 0
							}
						}
					}
				}
			}
		}
	}
	JOINT Spine_virtual
	{
		OFFSET 0.000000 0.000000 0.000000
		CHANNELS 3 Xrotation Yrotation Zrotation
		JOINT Spine
		{
			OFFSET 0.072000 7.257294 -0.789700
			CHANNELS 3 Xrotation Yrotation Zrotation
			JOINT Spine1
			{
				OFFSET 0.000000 12.508769 -0.658067
				CHANNELS 3 Xrotation Yrotation Zrotation
				JOINT Spine1_split
				{
					OFFSET 0.000000 12.508769 -0.658067
					CHANNELS 3 Xrotation Yrotation Zrotation
					JOINT Spine2
					{
						OFFSET 0.000000 12.508769 -0.658067
						CHANNELS 3 Xrotation Yrotation Zrotation
						JOINT Neck_virtual
						{
							OFFSET 0.000000 0.000000 0.000000
							CHANNELS 3 Xrotation Yrotation Zrotation
							JOINT Neck
							{
								OFFSET 0.000000 14.033295 7.520400
								CHANNELS 3 Xrotation Yrotation Zrotation
								JOINT Head
								{
									OFFSET 0.000000 8.198502 5.703100
									CHANNELS 3 Xrotation Yrotation Zrotation
									JOINT HeadTop_End
									{
										OFFSET 0.000000 17.760803 13.332701
										CHANNELS 3 Xrotation Yrotation Zrotation
										End Site
										{
											OFFSET 0 0 0
										}
									}
								}
							}
						}
						JOINT LeftShoulder_virtual
						{
							OFFSET 0.000000 0.000000 0.000000
							CHANNELS 3 Xrotation Yrotation Zrotation
							JOINT LeftShoulder
							{
								OFFSET 6.292450 5.785301 -0.669000
								CHANNELS 3 Xrotation Yrotation Zrotation
								JOINT LeftShoulder_split
								{
									OFFSET 6.292450 5.785301 -0.669000
									CHANNELS 3 Xrotation Yrotation Zrotation
									JOINT LeftArm
									{
										OFFSET 13.907140 -6.093903 1.965100
										CHANNELS 3 Xrotation Yrotation Zrotation
										JOINT LeftForeArm
										{
											OFFSET 34.140198 0.000000 0.000000
											CHANNELS 3 Xrotation Yrotation Zrotation
											JOINT LeftHand
											{
												OFFSET 40.960209 0.000000 0.000000
												CHANNELS 3 Xrotation Yrotation Zrotation
												End Site
												{
													OFFSET 0 0 0
												}
											}
										}
									}
								}
							}
						}
						JOINT RightShoulder_virtual
						{
							OFFSET 0.000000 0.000000 0.000000
							CHANNELS 3 Xrotation Yrotation Zrotation
							JOINT RightShoulder
							{
								OFFSET -6.292450 5.785301 -0.669000
								CHANNELS 3 Xrotation Yrotation Zrotation
								JOINT RightShoulder_split
								{
									OFFSET -6.292450 5.785301 -0.669000
									CHANNELS 3 Xrotation Yrotation Zrotation
									JOINT RightArm
									{
										OFFSET -13.907140 -6.093903 1.965100
										CHANNELS 3 Xrotation Yrotation Zrotation
										JOINT RightForeArm
										{
											OFFSET -34.140198 0.000000 0.000000
											CHANNELS 3 Xrotation Yrotation Zrotation
											JOINT RightHand
											{
												OFFSET -40.960209 0.000000 0.000000
												CHANNELS 3 Xrotation Yrotation Zrotation
												End Site
												{
													OFFSET 0 0 0
												}
											}
										}
									}
								}
							}
						}
					}
				}
			}
		}
	}
}
MOTION
Frames: 4
Frame Time: 0.03333333
2.373370 70.743561 22.374279 0.000000 0.000000 0.000000 -3.837425 6.066588 -0.225781 -84.005535 -9.069000 13.249591 80.726696 0.901592 -1.931337 10.011189 -5.512701 -8.656957 -3.193810 -0.384254 0.008307 0.000000 0.000000 0.000000 -4.212508 6.554900 -0.144923 -88.147635 10.836195 -12.928940 83.529061 0.369416 -0.716358 9.368994 -0.068071 8.978553 1.784324 1.040982 0.449810 0.000000 0.000000 0.000000 -3.745625 1.792494 -0.734961 11.170219 -0.524058 -2.406176 1.700694 0.491486 -0.378806 1.274624 2.313683 -0.345657 0.000000 0.000000 0.000000 1.089877 0.231218 -0.458742 -0.991522 -4.922141 1.206365 -9.734553 -0.712531 -1.697803 0.000000 0.000000 0.000000 2.113994 -0.368676 -0.435601 0.620390 -12.365181 -6.004157 -6.188582 1.060715 -3.158546 -1.038019 -15.965002 -56.343077 6.373147 -65.121619 5.434265 0.000000 0.000000 0.000000 1.155117 0.255916 0.049462 3.073820 -5.431346 7.906568 4.184716 6.067906 1.140877 -7.432503 34.283482 64.267900 -4.446892 58.522338 -0.096640 0.000000 0.000000 0.000000 
2.268866 70.698792 22.106556 0.000000 0.000000 0.000000 -4.067052 5.854188 -0.118208 -83.814494 -9.087624 13.261539 80.876413 0.829601 -1.904377 10.169578 -5.490435 -8.595023 -3.320470 -0.368600 0.015331 0.000000 0.000000 0.000000 -4.554602 6.281255 -0.014734 -88.166240 10.696499 -13.129850 83.901771 0.494330 -0.782664 9.281673 0.085169 8.912178 2.055973 1.047120 0.451165 0.000000 0.000000 0.000000 -4.219452 1.751556 -0.686550 10.986781 -0.589535 -2.376517 1.969696 0.517094 -0.338258 1.239161 2.284416 -0.095135 0.000000 0.000000 0.000000 1.269494 0.206307 -0.350897 -1.163796 -4.330155 1.184243 -10.286792 -0.553321 -1.674716 0.000000 0.000000 0.000000 2.222690 -0.301157 -0.423271 0.540642 -12.341888 -6.116695 -5.309728 -0.323469 -2.876668 -1.480487 -16.263302 -56.700532 6.798397 -64.517974 5.542613 0.000000 0.000000 0.000000 1.373486 0.215251 0.022321 3.000915 -5.056936 8.223900 3.881460 5.832464 1.156951 -7.184176 32.650292 62.794847 -3.749825 57.441126 -0.178346 0.000000 0.000000 0.000000 
2.143446 70.678177 21.878883 0.000000 0.000000 0.000000 -4.476839 5.609648 0.127025 -83.511453 -8.946843 13.226557 80.972671 0.899668 -1.839186 10.389770 -5.433469 -8.281888 -3.424011 -0.338038 -0.003630 0.000000 0.000000 0.000000 -5.010894 5.977523 0.235651 -87.994024 10.556646 -13.324733 84.166755 0.630397 -0.903125 9.251083 0.232157 8.883028 2.137550 1.036878 0.489656 0.000000 0.000000 0.000000 -4.797107 1.536917 -0.625184 10.713646 -0.710230 -2.301593 2.723981 0.472835 -0.291906 1.133171 2.202438 0.203411 0.000000 0.000000 0.000000 1.931024 0.155233 -0.289814 -1.253213 -3.747194 1.053639 -12.004075 -0.172907 -1.844846 0.000000 0.000000 0.000000 2.789251 -0.228785 -0.414776 0.424201 -12.903472 -6.260250 -4.608502 -1.715798 -2.258319 -1.322397 -16.837400 -56.373964 6.915961 -64.933188 5.578517 0.000000 0.000000 0.000000 2.161523 0.157295 -0.054241 2.796424 -4.170036 8.683674 3.389065 5.753748 0.894628 -6.590231 30.498058 59.941993 -3.086360 58.221823 -0.277862 0.000000 0.000000 0.000000 
1.993186 70.744461 21.724606 0.000000 0.000000 0.000000 -4.976443 5.352010 0.465368 -83.158421 -8.706303 13.145491 80.949981 1.050139 -1.711636 10.643545 -5.361257 -7.862633 -3.499329 -0.297358 -0.047166 0.000000 0.000000 0.000000 -5.457797 5.752496 0.563965 -87.655431 10.474372 -13.481335 84.197921 0.741794 -1.041121 9.259144 0.331237 8.864540 2.040224 1.003367 0.561280 0.000000 0.000000 0.000000 -5.347506 1.118489 -0.529938 10.363703 -0.845696 -2.198287 3.889861 0.400241 -0.263023 0.990743 1.989340 0.515162 0.000000 0.000000 0.000000 3.014526 0.094409 -0.291685 -1.277657 -3.234502 0.757588 -14.740334 0.296596 -2.218784 0.000000 0.000000 0.000000 3.734672 -0.143073 -0.427137 0.268477 -13.985142 -6.403789 -4.166874 -2.659428 -1.815183 -0.797547 -17.234449 -54.877804 6.828869 -67.225235 5.639535 0.000000 0.000000 0.000000 3.423760 0.100300 -0.186940 2.487896 -2.844149 9.245890 2.766326 5.741066 0.485676 -6.072472 28.160236 56.038878 -2.355782 61.960006 -0.457060 0.000000 0.000000 0.000000 
